<?xml version="1.0" encoding="UTF-8"?>
<svg width="136px" height="116px" viewBox="0 0 136 116" version="1.1" xmlns="http://www.w3.org/2000/svg" xmlns:xlink="http://www.w3.org/1999/xlink">
    <title>Marina 2</title>
    <g id="Maison-George" stroke="none" stroke-width="1" fill="none" fill-rule="evenodd">
        <g id="Landing-Page" transform="translate(-532.000000, -725.000000)" fill="#000000" fill-rule="nonzero">
            <g id="Marina-2" transform="translate(532.500000, 725.000000)">
                <path d="M123.032101,112.024118 L122.55685,111.734331 C121.397701,110.992475 120.14582,110.296986 119.009853,109.624679 C117.016117,108.46553 115.149886,107.37593 113.596626,106.309512 C106.363535,101.290396 101.04304,97.0363183 98.5276861,87.2067327 C97.4380858,82.9990209 96.5455409,77.9335387 95.60663,72.6362266 C95.3400257,71.0597836 95.0618298,69.5412981 94.7952255,67.9996296 C92.2566887,67.5359699 89.8804327,67.0259443 87.7012321,66.4695526 C80.5840557,66.7361569 71.1485809,66.4695526 56.9142281,65.5422332 C19.8214521,63.2239347 7.32582325,50.1719142 4.38158416,46.2539897 C1.43734507,42.3360653 0.023182985,36.8648808 0.023182985,30.373645 C0.023182985,26.7104296 0.503041938,23.0629954 1.44893656,19.5240081 C4.13816282,9.85670334 12.1247011,3.79435277 25.8606197,0.977620095 C28.8816186,0.358060731 31.95721,0.0435116106 35.0410818,0.0387092043 C48.2553832,0.0387092043 59.383216,5.91559589 71.2065383,12.1402274 C72.9336707,13.0559553 74.6839861,13.9832747 76.4690759,14.8990026 C77.3384378,15.3510708 78.2193913,15.826322 79.0655702,16.3363476 C80.7125801,15.5426698 82.4718758,15.007062 84.2817418,14.7483132 C89.0616569,14.155838 93.8734734,13.8577609 98.689967,13.8557682 C102.79684,13.7856264 106.900657,14.1195226 110.942175,14.8526366 C124.991063,17.7736927 128.062809,26.2354822 128.329413,38.0356216 C128.561243,47.3088155 124.052153,54.263711 114.581903,59.2944188 C118.604151,59.4566997 124.214433,59.4798827 126.741379,59.4798827 C129.476971,59.4798827 131.992325,59.4798827 133.696274,59.4219252 L134.275849,59.4219252 L134.472904,70.2599707 L133.89333,70.2599707 C132.560308,70.2599707 130.833176,70.2599707 128.85103,70.2599707 C125.373583,70.2599707 113.724133,70.2599707 105.992607,69.4717492 L106.178071,70.5613495 C107.082208,75.7079721 107.939978,80.5648075 108.925255,84.39 C110.513289,90.487125 113.909597,92.840198 120.076271,97.1406417 C122.522076,98.8445911 125.292442,100.757187 128.30623,103.191401 L128.723524,103.527554 L123.032101,112.024118 Z M87.8055556,65.3219949 L87.886696,65.3219949 C90.2049945,65.913161 92.6855739,66.4811441 95.3632087,66.9332123 L95.7573194,67.0027613 L95.8384598,67.396872 C96.1398387,69.0544554 96.429626,70.7120389 96.7078218,72.3232563 C97.6583242,77.7248918 98.5392776,82.7555996 99.6288779,86.9053539 C102.063091,96.2944628 107.232897,100.4674 114.257341,105.347418 C115.775827,106.390653 117.630466,107.468662 119.589428,108.616219 C120.597888,109.195794 121.629531,109.775369 122.695948,110.447675 L127.21663,103.817341 C124.399897,101.568592 121.791812,99.760319 119.485105,98.1606931 C113.086601,93.7327429 109.562787,91.286938 107.893612,84.7725193 C106.885152,80.9125523 106.027382,76.0209424 105.123245,70.8627283 L104.659586,68.266234 L105.424624,68.3473744 C113.086601,69.1471874 125.3504,69.2051448 128.932171,69.2051448 C130.624529,69.2051448 132.143014,69.2051448 133.383304,69.2051448 L133.186249,60.6853979 C131.470708,60.6853979 129.198775,60.6853979 126.741379,60.6853979 C123.692816,60.6853979 116.193121,60.6853979 112.298379,60.3840191 L110.072813,60.2217382 L112.101324,59.2828273 C122.533667,54.4375834 127.402094,47.5174624 127.170264,38.1051705 C126.834111,24.6010818 122.209105,18.3996333 110.663979,16.0117858 C106.702983,15.2917779 102.680443,14.9656259 98.6551925,15.0381005 C93.8925483,15.0372935 89.1345479,15.3353944 84.4092483,15.9306454 C82.6136954,16.1837718 80.8714308,16.7279848 79.2510341,17.5418629 L78.9728383,17.6809608 L78.6946425,17.5186799 C77.7905061,16.9622882 76.8515952,16.4406711 75.9010928,15.9538284 C74.1160029,15.0381005 72.3656876,14.1107811 70.6269637,13.1950532 C59.0006967,7.05156216 47.9424129,1.24422442 35.0178988,1.24422442 C32.0117764,1.24697972 29.0136407,1.55378375 26.0692666,2.15995233 C12.7970077,4.84917858 5.10025669,10.6333333 2.55012835,19.8485699 C1.62150341,23.2836154 1.15374482,26.8268868 1.15910295,30.3852365 C1.15910295,36.633051 2.6196773,41.976729 5.28572057,45.5700917 C8.14881922,49.3952842 20.3546608,62.053194 56.9721856,64.3946755 C71.2065383,65.3104034 80.6420132,65.5538247 87.7244151,65.3219949 L87.8055556,65.3219949 Z M88.8603814,56.7674734 L88.7676494,56.7674734 C82.9719032,55.1794389 78.9612468,53.2900257 77.1761569,51.22674 C72.7366153,46.2771727 73.6987092,40.9103117 75.2983352,34.9175101 C75.4490246,34.3843014 75.576531,33.9206417 75.6808544,33.480165 C76.2676234,31.6836169 77.2590512,30.0457782 78.5787275,28.6928786 L78.9728383,28.2639934 L79.4017235,28.6581041 C84.2701503,33.2135607 86.6579978,38.7311111 89.1965347,44.5616318 C89.7645178,45.8714705 90.3556839,47.1929006 90.9352585,48.4911478 C91.9525761,50.8370368 92.7707297,53.2643548 93.3810634,55.7474221 L93.5549358,56.3965457 L92.8942208,56.4776861 C91.7350715,56.616784 90.4136414,56.709516 88.9878878,56.7906564 L88.8603814,56.7674734 Z M79.0076128,29.8983938 C77.9980452,31.0040551 77.2354235,32.3119711 76.7704547,33.7351779 C76.6661313,34.1756546 76.5270334,34.6624972 76.399527,35.1609314 C74.8810414,40.8523542 73.953722,45.906245 77.9991529,50.426927 C79.6683278,52.2931573 83.4587459,54.0782472 88.9878878,55.6083242 C90.0890796,55.6083242 91.0975394,55.4692263 92.0596333,55.3764943 C91.4952801,53.1799532 90.7548938,51.0324451 89.8456582,48.9548075 C89.2429006,47.6449688 88.686509,46.3235387 88.0953429,45.0021085 C85.5915805,39.2063623 83.4587459,34.1988376 79.0076128,29.9331683 M70.5226403,56.66315 L69.2707591,56.6051925 C65.6773964,56.4429116 61.7246975,56.2226733 57.5053942,55.9444774 C22.9511551,53.7305024 13.109978,41.8028566 12.0899267,40.4582435 C9.58616428,37.1198937 8.35746608,29.1449468 10.756905,22.0857279 C12.402897,17.263667 15.6369234,12.5111551 28.0514118,10.4942354 C29.8485134,10.1994765 31.6667083,10.0521601 33.4878218,10.0537458 C46.0645911,10.0537458 58.9079648,16.7652329 68.2622992,21.6452512 L71.1369894,23.1405537 L71.7745215,23.4651155 L71.3224532,24.0215072 C69.4948544,26.1754949 68.143822,28.6918914 67.3581628,31.4052879 C67.2654309,31.7993986 67.1611074,32.2051008 67.0451925,32.6455776 C65.6658049,37.7806087 63.150451,47.1929006 69.7344188,55.6546901 L70.5226403,56.66315 Z M33.4994133,11.1547732 C31.7439568,11.1490076 29.9911794,11.2924872 28.2600587,11.5838357 C14.8139274,13.8325853 12.9013311,19.4428676 11.8696883,22.4682472 C9.55138981,29.1565383 10.7105391,36.656234 13.0288376,39.7627539 C14.0141144,41.0725926 23.5539127,52.5133957 57.5981261,54.7389622 C61.3305867,54.9823836 64.8659919,55.1910304 68.1232013,55.3417198 C62.1072167,46.7060579 64.5877961,37.4444554 65.9324092,32.3905647 C66.0715072,31.8805391 66.1758306,31.4748368 66.2685625,31.0923176 C67.0193434,28.4407064 68.2922682,25.9657937 70.0126146,23.8128603 L67.7638651,22.653711 C58.4906711,17.8084672 45.7400293,11.166542 33.4994133,11.166542 M101.784895,54.310077 L101.622615,53.6725449 C100.87913,50.672525 99.8825538,47.7409637 98.643601,44.9093766 C98.0756179,43.6806784 97.5424092,42.4403887 96.9976091,41.200099 C94.6793106,35.763689 92.2219142,30.2113641 87.7244151,25.076333 L86.9593766,24.206971 L89.0342538,24.0446901 C91.816212,23.8244518 95.2820682,23.546256 98.8174734,23.546256 C102.389673,23.4428777 105.957141,23.8766005 109.400506,24.8329116 C116.100389,26.9541547 118.6737,28.6465127 118.6737,38.116762 C118.6737,47.1581261 112.425886,50.2414631 103.60476,53.6145875 L101.784895,54.310077 Z M89.3472241,25.1806564 C93.4969784,30.2229556 95.8964173,35.7520975 98.0292519,40.6668904 C98.5972351,41.9651375 99.1884012,43.2054272 99.6984268,44.4341254 C100.884768,47.1242409 101.846284,49.9079853 102.573117,52.756817 L103.152692,52.5365787 C111.556524,49.3257352 117.502959,46.4162706 117.502959,38.116762 C117.502959,28.9710744 115.068746,27.8351082 109.064353,25.9456949 C105.735742,25.0365906 102.289174,24.6341001 98.8406564,24.7517712 C95.4327576,24.7517712 92.0828163,25.0183755 89.3472241,25.2270224" id="Shape"></path>
                <path d="M78.590319,29.5042831 C76.1958999,27.3914836 73.5340946,25.6026569 70.6733297,24.183788 L71.1833553,23.1521452 C74.1654069,24.6170153 76.9341503,26.4810426 79.413315,28.6928786 L78.590319,29.5042831 Z" id="Path"></path>
                <path d="M88.8371984,26.0152439 C88.5590026,26.0152439 88.2112578,25.6674991 87.2955299,24.7749542 C84.6585968,22.1178848 81.7834481,19.7083472 78.706234,17.5766373 L79.3205831,16.602952 C82.4581449,18.7728326 85.3843918,21.2333639 88.0605684,23.9519582 L88.4430876,24.3112945 L88.61696,24.1606051 C89.3588155,25.1111074 89.6022369,25.4240777 89.1617602,25.8181885 C89.0693092,25.9246184 88.9418672,25.9945059 88.8024239,26.0152439" id="Path"></path>
                <path d="M90.0195306,66.9911698 C89.2630998,66.8994443 88.5150678,66.7482876 87.7823726,66.5391016 L87.6432747,66.5391016 L87.6432747,66.3420462 C77.060242,62.8645985 70.7196956,59.5030656 68.7955079,56.3617712 L69.7807847,55.7590136 C71.0442574,57.8222992 75.4258416,61.207015 89.1038027,65.5885992 C90.262952,65.9711184 90.5643308,66.0638504 90.4020499,66.6086505 C90.3325009,66.8868464 90.2861349,67.0259443 89.9731646,67.0259443" id="Path"></path>
                <path d="M112.321562,60.453568 C104.340323,60.1388848 96.4234473,58.8900803 88.732875,56.7326989 L88.732875,56.7326989 C87.7244151,56.3849542 87.2143894,56.2226733 87.110066,56.1994903 L87.110066,56.1299413 C86.9453532,56.0760655 86.7975308,55.9801807 86.6811808,55.8517455 L86.7970957,55.2373964 C87.0289256,54.9939751 87.0637,54.9476091 88.2576238,55.3533113 C96.0963985,57.6369105 104.186031,58.948848 112.344745,59.2596443 L112.321562,60.453568 Z" id="Path"></path>
                <path d="M107.48791,69.7151705 L107.232897,69.7151705 C106.827195,69.7151705 106.224437,69.6456216 105.331892,69.5760726 L105.331892,69.5760726 C102.480385,69.2631023 97.7046901,68.7298937 95.1893363,68.219868 L95.4095746,67.0607187 C98.2610818,67.6287019 104.323432,68.219868 106.618548,68.5212468 L107.511093,68.6255702 L107.592233,68.6255702 C108.102259,68.7183022 108.206582,68.8574001 108.160216,69.2515108 C108.11385,69.6456216 108.160216,69.7383535 107.48791,69.7383535 L107.48791,69.7151705 Z" id="Path"></path>
                <path d="M92.1175908,56.7211074 L92.1175908,56.7211074 C91.9141,56.7867061 91.695141,56.7867061 91.4916502,56.7211074 L91.3177778,56.1531243 C91.4105097,55.793788 91.5380161,55.7590136 92.6971654,55.4460433 L92.6971654,55.5503667 C94.8184085,55.0751155 100.127312,53.7652769 102.028317,53.1161533 L102.399245,54.2753025 C102.318104,54.2753025 94.9227319,56.4660946 92.3378291,56.8022479 L92.1175908,56.8717968" id="Path"></path>
                <path d="M124.817191,107.909138 C124.168067,107.561393 109.052761,99.3546168 106.085339,92.4808618 C103.846023,87.1109744 102.35231,81.4598274 101.645798,75.6847891 C100.822802,69.9701834 100.614155,68.4980638 100.614155,68.4980638 L101.773304,68.3473744 L102.804947,75.5225083 C103.505561,81.1799537 104.967737,86.7167264 107.151757,91.9824276 C109.956898,98.4736634 125.211302,106.76158 125.361991,106.842721 L124.817191,107.909138 Z" id="Path"></path>
                <path d="M76.0865567,61.7402237 C76.0865567,61.7402237 74.1391859,61.0563256 59.8584672,60.453568 C47.979417,60.0447965 36.2227101,57.9128928 24.9564833,54.1246131 C16.4599193,51.1571911 9.07613861,44.9209681 6.14349102,38.2326769 C2.87469014,30.7445728 6.22463146,18.5271397 11.3132967,12.9864063 C16.4019619,7.4456729 27.703667,5.20851485 35.6554309,5.10419142 C43.6071947,4.99986799 58.56022,11.2592739 59.1977521,11.5258783 C76.1676971,19.6978805 82.566201,23.9287752 87.7360066,30.3852365 C93.2883315,37.340132 98.689967,53.7884598 98.9217968,54.4839494 L97.7626476,54.8432857 C97.7626476,54.6810048 92.1987312,37.8733407 86.7739127,31.1155006 C81.7316135,24.8097286 75.4258416,20.6831573 58.6645435,12.5691126 C58.537037,12.5691126 43.4912798,6.25174917 35.7829373,6.25174917 L35.6090649,6.25174917 C27.2400073,6.35607261 16.7149322,8.70914558 12.0667437,13.7630363 C7.41855519,18.816927 4.05702237,30.7677558 7.11717638,37.7574257 C9.92231757,44.1675211 17.0394939,50.1487312 25.2462706,53.0118298 C36.4014866,56.7737642 48.0463105,58.8863899 59.8121012,59.2828273 C74.3362413,59.8971764 76.3183865,60.5694829 76.5733993,60.6969894 L76.0865567,61.7402237 Z" id="Path"></path>
                <path d="M126.590689,65.3799523 C116.923385,65.3799523 99.9302567,64.8815182 90.262952,61.7749982 C75.1940117,56.9297543 71.1022149,52.3511148 70.3719509,49.3605097 L70.140121,48.5027393 C68.2767985,42.530215 68.8950807,36.0591394 71.8556619,30.5475174 C72.7239923,28.9902215 73.4383206,27.351925 73.9884965,25.6559076 L75.1476458,25.8877374 C74.5817928,27.6685768 73.8320301,29.3856501 72.9104877,31.0111771 C70.0705225,36.2870285 69.4852018,42.4872475 71.2876788,48.2013605 L71.5195086,49.0823139 C72.0643088,51.296289 75.2751522,55.7358306 90.6454712,60.6738064 C104.497305,65.113348 133.591951,64.1512541 133.881738,64.1512541 L133.881738,65.3104034 C133.789006,65.3104034 130.914316,65.4147268 126.567506,65.4147268" id="Path"></path>
                <path d="M101.182138,59.3523762 L100.857576,58.193227 C108.03271,56.1183498 113.712541,53.3827576 117.282721,50.2878291 C122.209105,45.9989769 123.02051,37.0155702 121.722263,32.1819179 C119.925581,25.5399927 115.532406,22.016179 107.499501,20.7527063 C99.1652182,19.4428676 83.1573671,20.7527063 82.9719032,20.7527063 L82.8791713,19.593557 C83.5398863,19.5355996 99.2115842,18.2373524 107.673374,19.593557 C112.982277,20.4281445 120.331283,22.6073451 122.835046,31.8689476 C124.168067,36.8069234 123.56531,46.3467217 118.047759,51.1455996 C114.350073,54.356443 108.519553,57.1731757 101.182138,59.2596443" id="Path"></path>
                <path d="M18.6854859,77.3539641 C18.5206565,76.0327435 18.7675861,74.6928465 19.3925669,73.5171801 C20.0782692,72.470459 21.2734717,71.8728577 22.5222699,71.9523286 C25.9301687,71.9523286 25.9301687,74.7342868 25.9301687,76.1368574 L25.9301687,78.1305941 L23.6118702,78.1305941 L23.6118702,75.9977594 C23.6118702,74.9197506 23.6118702,74.0619802 22.4527209,74.0619802 C21.2935717,74.0619802 21.1776568,75.2211294 21.1776568,76.1600403 L21.1776568,87.1255922 C21.1776568,88.3658819 21.1776568,89.4438907 22.429538,89.4438907 C23.6814191,89.4438907 23.6930106,88.2847415 23.6930106,87.7399413 L23.6930106,83.4047231 L22.1397506,83.4047231 L22.1397506,81.0864246 L26.17359,81.0864246 L26.17359,91.2405721 L24.6551045,91.2405721 L24.4348662,90.3480271 C23.9223766,91.1182315 23.0402249,91.5593073 22.1165677,91.5071764 C18.6391199,91.5071764 18.6391199,88.1340521 18.6391199,86.7546645 L18.6854859,77.3539641 Z" id="Path"></path>
                <polygon id="Path" points="31.7259149 72.1725669 38.0200953 72.1725669 38.0200953 74.5720059 34.2876348 74.5720059 34.2876348 80.1359223 37.6375761 80.1359223 37.6375761 82.4889952 34.2876348 82.4889952 34.2876348 88.8295416 38.0432783 88.8295416 38.0432783 91.2405721 31.7259149 91.2405721"></polygon>
                <path d="M43.189901,77.3191896 C43.189901,75.5920572 43.2710414,74.3517675 44.1404034,73.3548992 C44.9437504,72.4829753 46.08496,72.0011312 47.2701063,72.033469 C48.3346633,71.9672082 49.3767082,72.3595571 50.133205,73.1114778 C51.1880308,74.2706271 51.1880308,75.5456912 51.1880308,77.8871727 L51.1880308,86.9285369 C51.1880308,88.3426989 51.1880308,91.4144444 47.026685,91.4144444 C45.6354659,91.5131726 44.3155155,90.7874267 43.6535607,89.5598056 C43.2724017,88.7134412 43.1128437,87.7840161 43.189901,86.8589879 L43.189901,77.3191896 Z M48.7074514,77.1337257 C48.7074514,75.4877338 48.7074514,74.2242611 47.2469234,74.2242611 C46.6253089,74.1847606 46.051043,74.5566212 45.8327613,75.139989 C45.6910864,75.7866457 45.6480975,76.4510204 45.7052549,77.1105427 L45.7052549,87.3458306 C45.7052549,88.2847415 45.7863953,89.3395673 47.1657829,89.3395673 C48.5451705,89.3395673 48.7074514,88.0992776 48.7074514,86.743073 L48.7074514,77.1337257 Z" id="Shape"></path>
                <path d="M56.7751302,72.1609754 L60.8785185,72.1609754 C63.9618555,72.1609754 64.3559663,73.0071544 64.3559663,76.7975724 C64.3559663,80.1475138 64.2748258,81.5269014 62.2231316,81.4341694 L62.2231316,81.5500843 C64.0314045,81.7703227 64.2748258,82.8019655 64.2748258,85.3405024 L64.2748258,87.4153795 C64.1348817,88.6957753 64.3017629,89.9910916 64.7616685,91.1942061 L62.1419912,91.1942061 C61.8586542,89.880389 61.7225807,88.5390933 61.736289,87.1951412 L61.736289,85.8853025 C61.7834725,84.9196699 61.6738646,83.9527718 61.4117272,83.0222039 C61.1219399,82.4542208 60.8205611,82.4542208 59.33685,82.4542208 L59.33685,91.2289806 L56.8214961,91.2289806 L56.7751302,72.1609754 Z M59.313667,74.4792739 L59.313667,80.3909351 L60.4728163,80.3909351 C61.736289,80.3909351 61.7942464,79.8345435 61.7942464,76.670066 C61.7942464,74.5604144 61.6551485,74.5024569 60.5771397,74.5024569 L59.313667,74.4792739 Z" id="Shape"></path>
                <path d="M69.7807847,77.3539641 C69.6184179,76.0341068 69.8609626,74.6960684 70.4762743,73.5171801 C71.1640682,72.4666949 72.3647463,71.8685711 73.6175688,71.9523286 C77.0138761,71.9523286 77.0138761,74.7342868 77.0138761,76.1368574 L77.0138761,78.1305941 L74.6955776,78.1305941 L74.6955776,75.9977594 C74.6955776,74.9197506 74.6955776,74.0619802 73.5364283,74.0619802 C72.3772791,74.0619802 72.2613641,75.2211294 72.2613641,76.1600403 L72.2613641,87.1255922 C72.2613641,88.3658819 72.2613641,89.4438907 73.5132453,89.4438907 C74.7651265,89.4438907 74.776718,88.2847415 74.776718,87.7399413 L74.776718,83.4047231 L73.2350495,83.4047231 L73.2350495,81.0864246 L77.2572974,81.0864246 L77.2572974,91.2405721 L75.7504034,91.2405721 L75.530165,90.3480271 C75.0176754,91.1182315 74.1355238,91.5593073 73.2118665,91.5071764 C69.7344188,91.5071764 69.7344188,88.1340521 69.7344188,86.7546645 L69.7807847,77.3539641 Z" id="Path"></path>
                <polygon id="Path" points="82.8096223 72.1725669 89.1038027 72.1725669 89.1038027 74.5720059 85.3829336 74.5720059 85.3829336 80.1359223 88.732875 80.1359223 88.732875 82.4889952 85.3829336 82.4889952 85.3829336 88.8295416 89.1269857 88.8295416 89.1269857 91.2405721 82.8096223 91.2405721"></polygon>
                <path d="M22.2556656,96.4915182 L23.8205171,106.13564 C24.069557,107.504497 24.1860109,108.89418 24.1682618,110.285394 L24.3885002,110.285394 C24.3959418,108.912352 24.4966331,107.541401 24.689879,106.182006 L26.1156326,96.4915182 L29.8133187,96.4915182 L29.8133187,115.559523 L27.4950202,115.559523 L27.4950202,102.727741 C27.4950202,101.835196 27.4950202,100.896285 27.4950202,99.9805574 L27.2863733,99.9805574 C27.2284158,100.455809 26.9849945,102.866839 26.9038541,103.400048 L25.2346791,115.559523 L23.1250275,115.559523 L21.4558526,103.782567 C21.2124312,102.217715 21.1312908,100.977426 21.0501503,99.9805574 L20.806729,99.9805574 C20.8878695,101.325171 20.9690099,102.994345 20.9690099,104.327367 L20.9690099,115.559523 L18.6507114,115.559523 L18.6507114,96.4915182 L22.2556656,96.4915182 Z" id="Path"></path>
                <path d="M40.7325046,96.4915182 L43.6767437,115.559523 L41.2193473,115.559523 L40.7325046,112.082076 L37.8809974,112.082076 L37.4405207,115.559523 L35.0178988,115.559523 L37.6839421,96.4915182 L40.7325046,96.4915182 Z M39.0865127,100.096472 C39.0053722,102.577052 39.0053722,102.843656 38.9590062,103.168218 L38.1476018,109.729003 L40.4659003,109.729003 L39.5153979,103.121852 C39.3764434,102.119236 39.3028752,101.108642 39.2951595,100.096472 L39.0865127,100.096472 Z" id="Shape"></path>
                <path d="M48.7885919,96.4915182 L52.8919802,96.4915182 C55.9753172,96.4915182 56.3694279,97.3261056 56.3694279,101.128115 C56.3694279,104.478056 56.2882875,105.857444 54.2365933,105.834261 L54.2365933,105.892219 C56.0448662,106.112457 56.2882875,107.132508 56.2882875,109.671045 L56.2882875,111.745922 C56.149595,113.030106 56.316411,114.328888 56.7751302,115.53634 L54.1554529,115.53634 C53.8660711,114.223486 53.7299275,112.881499 53.7497506,111.537275 L53.7497506,110.181071 C53.7969342,109.215438 53.6873263,108.24854 53.4251889,107.317972 C53.1354015,106.749989 52.8340227,106.749989 51.3503117,106.749989 L51.3503117,115.53634 L48.8349578,115.53634 L48.7885919,96.4915182 Z M51.3271287,98.8098166 L51.3271287,104.733069 L52.486278,104.733069 C53.7497506,104.733069 53.8077081,104.165086 53.8077081,101.000609 C53.8077081,98.9025486 53.6686102,98.8445911 52.5906014,98.8445911 L51.3271287,98.8098166 Z" id="Shape"></path>
                <rect id="Rectangle" x="61.9681188" y="96.4915182" width="2.48057939" height="19.0680051"></rect>
                <path d="M72.7250238,96.4915182 L75.553348,108.69736 C75.7156289,109.427624 75.8315438,109.972424 75.9590502,110.586773 L76.1213311,110.586773 C76.0170077,109.694228 75.9126843,108.801683 75.8547268,107.885955 L75.7504034,106.100865 L75.6460799,96.4915182 L77.9643784,96.4915182 L77.9643784,115.559523 L75.2287862,115.559523 L72.0759003,101.255622 L71.9136194,101.255622 L72.0527173,102.901613 L72.1570407,104.559197 L72.3772791,115.547932 L70.0589806,115.547932 L70.0589806,96.4915182 L72.7250238,96.4915182 Z" id="Path"></path>
                <path d="M88.8256069,96.4915182 L91.769846,115.559523 L89.3124496,115.559523 L88.8256069,112.082076 L85.9625083,112.082076 L85.533623,115.559523 L83.0994096,115.559523 L85.7654529,96.4915182 L88.8256069,96.4915182 Z M87.179615,100.096472 C87.1845972,101.122068 87.138173,102.14727 87.0405171,103.168218 L86.2291126,109.729003 L88.5474111,109.729003 L87.5969087,103.121852 C87.4833638,102.117461 87.429176,101.107246 87.4346278,100.096472 L87.179615,100.096472 Z" id="Shape"></path>
            </g>
        </g>
    </g>
</svg>